<svg class="icon" viewBox="0 0 1024 1024" version="1.1" xmlns="http://www.w3.org/2000/svg"  width="42" height="42"><path d="M996.041 354c15.379 0 27.959-12.636 27.959-28 0-15.371-12.58-28-27.959-28H898v-78.222c0-53.93-43.29-97.778-97.256-97.778H762V27.944C762 12.573 749.379 0 734 0s-28 12.573-28 27.944V122h-66V27.944C640 12.573 627.379 0 612 0s-28 12.573-28 27.944V122h-64V27.944C520 12.573 507.37 0 492 0c-15.379 0-28 12.573-28 27.944V122h-66V27.944C398 12.573 385.379 0 370 0c-15.37 0-28 12.573-28 27.944V122H223.256C169.29 122 124 165.848 124 219.778V298H27.959C12.58 298 0 310.629 0 326c0 15.364 12.58 28 27.959 28H124v66H27.959C12.58 420 0 432.631 0 448c0 15.371 12.58 28 27.959 28H124v64H27.959C12.58 540 0 552.629 0 568c0 15.369 12.58 28 27.959 28H124v66H27.959C12.58 662 0 674.629 0 690s12.58 28 27.959 28H124v78.957c0 53.93 45.29 97.043 99.256 97.043H266v102.056c0 15.371 12.63 27.944 28 27.944 15.379 0 28-12.573 28-27.944V894h64v102.056c0 15.371 12.621 27.944 28 27.944 15.371 0 28-12.573 28-27.944V894h66v102.056c0 15.371 12.621 27.944 28 27.944s28-12.573 28-27.944V894h64v102.056c0 15.371 12.621 27.944 28 27.944s28-12.573 28-27.944V894h116.744C854.71 894 898 850.886 898 796.957V718h98.041c15.379 0 27.959-12.629 27.959-28s-12.58-28-27.959-28H898v-66h98.041c15.379 0 27.959-12.631 27.959-28 0-15.371-12.58-28-27.959-28H898v-64h98.041c15.379 0 27.959-12.629 27.959-28 0-15.369-12.58-28-27.959-28H898v-66h98.041zM842 796.814C842 819.872 823.815 838 800.744 838H223.256C200.185 838 180 819.872 180 796.814V219.778C180 196.726 200.185 178 223.256 178h577.487C823.815 178 842 196.726 842 219.778v577.036zM447.585 672l-31.393-86h-119.01l-31.57 86h-20.751L348.44 396h18.091l102.338 276h-21.284z m-84.247-230.514c-1.419-3.781-2.544-7.846-3.37-11.629-0.948-3.191-1.893-5.857-2.838-9.857h-0.887c-2.128 10-4.198 15.444-6.208 20.643L303.745 568h106.062l-46.469-126.514zM534 562v110h-18V396h65.67c28.259 0 49.866 7.082 64.826 20.2 14.957 13.118 22.436 32.466 22.436 57.518 0 25.526-8.336 46.861-25.008 63.286C627.252 553.431 603.899 562 573.866 562H534z m0-148v130h39.512c24.711 0 43.542-5.82 56.49-17.638 12.947-11.816 19.421-28.793 19.421-50.42 0-41.125-23.708-61.942-71.122-61.942H534z m194 258V396h20v276h-20z" fill="#13227a"></path></svg>
